# xmcd
#
# Track frame offsets: 
#        150
#        12689
#        25093
#        40374
#        53729
#        67739
#        81718
#        94403
#        109275
#        120404
#        133138
#        148460
#        162078
#        176967
#        191651
#        204505
#        218725
#        233338
#        246299
#        260399
#        275244
#        288170
#        300472
#        312102
#        325418
#        338405
#
# Disc length: 4678 seconds
#
# Revision: 2
# Processed by: cddbd v1.5.2PL0 Copyright (c) Steve Scherf et al.
# Submitted via: ExactAudioCopy v1.1
#
DISCID=8712441a
DTITLE=Milton Brown and His Musical Brownies - Daddy Of Western Swing_CD
DTITLE=1 ''Brownies Stomp''
DYEAR=2003
DGENRE=Western Swing
TTITLE0=Oh You Pretty Woman
TTITLE1=Garbage Man Blues
TTITLE2=Joe Turner Blues (inst)
TTITLE3=Brownies Stomp (inst)
TTITLE4=Do The Hula Lou
TTITLE5=My Precious Sonny Boy
TTITLE6=Swinging On The Garden Gate
TTITLE7=Four Five Or Six Times
TTITLE8=Get Along Cindy
TTITLE9=Where Have You Been So Long Corrine
TTITLE10=Girl Of My Dreams
TTITLE11=Talking About You
TTITLE12=Loveland And You
TTITLE13=Take It Slow And Easy
TTITLE14=Just Sitting On Top Of The World
TTITLE15=This Morning This Evening So Soon
TTITLE16=Trinity Waltz (inst)
TTITLE17=Loveless Life
TTITLE18=Sweet Jennie Lee
TTITLE19=The Object Of My Affection
TTITLE20=I Love You
TTITLE21=Pray For The Lights To Go Out
TTITLE22=Put On Your Old Grey Bonnet
TTITLE23=In El Rio Grande
TTITLE24=A Good Man Is Hard To Find
TTITLE25=Down By The O-H-I-O
EXTD=
EXTT0=
EXTT1=
EXTT2=
EXTT3=
EXTT4=
EXTT5=
EXTT6=
EXTT7=
EXTT8=
EXTT9=
EXTT10=
EXTT11=
EXTT12=
EXTT13=
EXTT14=
EXTT15=
EXTT16=
EXTT17=
EXTT18=
EXTT19=
EXTT20=
EXTT21=
EXTT22=
EXTT23=
EXTT24=
EXTT25=
PLAYORDER=
